<svg xmlns="http://www.w3.org/2000/svg" xmlns:xlink="http://www.w3.org/1999/xlink" zoomAndPan="magnify" viewBox="0 0 100% 100% " version="1.0"><path fill="#000000" d="M -94.953125 -290.058594 L -94.953125 692.507812 L 641.972656 692.507812 L 641.972656 -290.058594 Z M 491.023438 604.21875 C 449.316406 616.148438 403.453125 612.882812 363.871094 595.136719 C 320.035156 575.492188 284.121094 539.050781 237.816406 526.238281 C 205.042969 517.152344 170.332031 520.863281 136.3125 520.757812 C 102.320312 520.652344 65.921875 515.617188 40.523438 493 C 2.460938 459.089844 4.839844 393.4375 38.667969 355.269531 C 72.476562 317.101562 129.105469 304.980469 179.097656 315.078125 C 195.242188 318.34375 211.511719 323.675781 227.804688 321.316406 C 263.359375 316.152344 284.394531 271.28125 270.441406 238.167969 C 256.488281 205.039062 215.941406 187.988281 180.699219 195.070312 C 162.933594 198.652344 146.621094 207.230469 129.273438 212.519531 C 111.949219 217.808594 91.992188 219.390625 76.691406 209.652344 C 62.167969 200.421875 54.9375 182.738281 53.464844 165.582031 C 50.429688 130.617188 69.417969 94.703125 100 77.507812 C 116.585938 68.191406 135.871094 64.101562 151.574219 53.355469 C 176.230469 36.472656 187.550781 -0.769531 169.847656 -24.839844 C 148.179688 -54.304688 97.027344 -52.257812 80.589844 -84.925781 C 67.207031 -111.503906 86.59375 -143.390625 109.949219 -161.832031 C 149.296875 -192.921875 200.113281 -206.789062 250.125 -210.519531 C 487.988281 -228.265625 638.914062 -119.46875 481.265625 -41.488281 C 438.355469 -20.265625 347.347656 -12.65625 329.707031 56.472656 C 318.054688 102.164062 363.136719 128.34375 407.605469 114.347656 C 542.261719 71.984375 569.40625 152.726562 544.328125 204.910156 C 525.042969 245.039062 463.414062 253.535156 452.328125 296.65625 C 447.417969 315.773438 456.566406 336.132812 470.054688 350.527344 C 483.542969 364.921875 500.992188 374.847656 517.179688 386.144531 C 554.316406 412.027344 587.742188 450.847656 587.300781 496.121094 C 586.773438 547.882812 540.765625 589.992188 491.023438 604.21875 Z M 491.023438 604.21875 " fill-opacity="1" fill-rule="nonzero"/><path fill="#000000" d="M 641.972656 -295.328125 L -94.953125 -295.328125 C -97.863281 -295.328125 -100.222656 -292.96875 -100.222656 -290.058594 L -100.222656 692.507812 C -100.222656 695.414062 -97.863281 697.777344 -94.953125 697.777344 L 641.972656 697.777344 C 644.878906 697.777344 647.242188 695.414062 647.242188 692.507812 L 647.242188 -290.058594 C 647.242188 -292.96875 644.878906 -295.328125 641.972656 -295.328125 Z M 636.703125 687.238281 L -89.683594 687.238281 L -89.683594 -284.792969 L 636.703125 -284.792969 Z M 37.003906 496.941406 C 66.066406 522.824219 107.585938 525.941406 136.273438 526.027344 C 144.132812 526.046875 152.164062 525.878906 159.917969 525.691406 C 185.464844 525.121094 211.894531 524.53125 236.382812 531.316406 C 262.453125 538.546875 284.878906 553.300781 308.609375 568.9375 C 325.472656 580.046875 342.921875 591.53125 361.703125 599.960938 C 386.171875 610.921875 413.273438 616.507812 440.292969 616.507812 C 457.957031 616.507812 475.597656 614.125 492.457031 609.296875 C 541.777344 595.179688 592 551.804688 592.546875 496.203125 C 593.097656 440.984375 547.445312 400.855469 520.171875 381.84375 C 516.316406 379.148438 512.332031 376.511719 508.476562 373.941406 C 495.765625 365.492188 483.773438 357.503906 473.867188 346.945312 C 459.601562 331.707031 453.445312 313.390625 457.410156 297.984375 C 462.804688 276.992188 481.792969 264.683594 501.898438 251.636719 C 520.339844 239.667969 539.414062 227.292969 549.066406 207.210938 C 563.335938 177.535156 560.46875 144.421875 541.777344 122.863281 C 527.488281 106.359375 490.835938 82.648438 406.023438 109.332031 C 383.199219 116.519531 359.320312 112.492188 345.179688 99.109375 C 334.324219 88.824219 330.636719 74.15625 334.808594 57.78125 C 347.242188 9.09375 397.972656 -7.238281 442.738281 -21.65625 C 457.957031 -26.546875 472.332031 -31.183594 483.605469 -36.769531 C 552.546875 -70.867188 554.507812 -106.464844 549.53125 -124.65625 C 534.589844 -179.328125 418.355469 -228.347656 249.726562 -215.789062 C 191.113281 -211.425781 142.972656 -194.667969 106.679688 -165.984375 C 81.578125 -146.171875 61.242188 -111.609375 75.867188 -82.566406 C 85.457031 -63.535156 105.207031 -55.421875 124.300781 -47.558594 C 140.738281 -40.792969 156.273438 -34.40625 165.609375 -21.71875 C 172.121094 -12.867188 174.546875 -1.191406 172.460938 11.136719 C 169.867188 26.398438 160.953125 40.539062 148.601562 48.992188 C 140.277344 54.679688 130.855469 58.410156 120.90625 62.351562 C 113.089844 65.453125 105.015625 68.632812 97.429688 72.890625 C 65.265625 90.972656 45.035156 129.25 48.214844 166.003906 C 50.070312 187.355469 59.40625 204.871094 73.867188 214.058594 C 92.140625 225.671875 114.921875 222.363281 130.8125 217.515625 C 137.914062 215.34375 144.890625 212.625 151.617188 210.011719 C 161.835938 206.027344 171.511719 202.257812 181.734375 200.191406 C 216.359375 193.214844 253.203125 210.769531 265.574219 240.171875 C 272.003906 255.429688 270.421875 274.800781 261.441406 290.691406 C 253.476562 304.792969 240.9375 314.042969 227.027344 316.066406 C 215.117188 317.796875 203.125 315.054688 190.417969 312.148438 C 186.980469 311.367188 183.546875 310.566406 180.109375 309.890625 C 124.300781 298.617188 67.226562 315.054688 34.707031 351.769531 C 17.402344 371.308594 7.433594 398.265625 7.347656 425.703125 C 7.285156 454.535156 17.824219 479.828125 37.003906 496.941406 Z M 42.589844 358.765625 C 72.664062 324.8125 125.839844 309.703125 178.023438 320.238281 C 181.375 320.914062 184.703125 321.671875 188.054688 322.453125 C 201.144531 325.445312 214.675781 328.542969 228.542969 326.519531 C 245.699219 324.035156 261.042969 312.863281 270.609375 295.898438 C 281.148438 277.222656 282.941406 254.3125 275.289062 236.105469 C 261.042969 202.257812 219.039062 181.960938 179.648438 189.882812 C 168.519531 192.117188 157.980469 196.226562 147.78125 200.210938 C 141.226562 202.761719 134.460938 205.417969 127.734375 207.460938 C 113.972656 211.65625 94.414062 214.671875 79.515625 205.1875 C 67.859375 197.765625 60.273438 183.160156 58.710938 165.121094 C 55.867188 132.347656 73.90625 98.203125 102.59375 82.101562 C 109.546875 78.203125 116.945312 75.273438 124.785156 72.175781 C 134.859375 68.191406 145.25 64.082031 154.566406 57.714844 C 169.214844 47.683594 179.792969 30.949219 182.851562 12.929688 C 185.421875 -2.246094 182.324219 -16.765625 174.105469 -27.9375 C 163.015625 -43.007812 145.375 -50.257812 128.328125 -57.273438 C 110.222656 -64.714844 93.128906 -71.753906 85.308594 -87.265625 C 73.339844 -111.039062 91.402344 -140.421875 113.234375 -157.679688 C 147.359375 -184.636719 194.84375 -201.078125 250.546875 -205.230469 C 411.589844 -217.242188 525.882812 -171.296875 539.394531 -121.832031 C 546.496094 -95.84375 525.042969 -68.972656 478.96875 -46.167969 C 468.390625 -40.941406 454.375 -36.429688 439.558594 -31.644531 C 394.539062 -17.144531 338.519531 0.875 324.648438 55.207031 C 319.488281 75.441406 324.226562 93.757812 337.992188 106.800781 C 354.851562 122.777344 382.839844 127.730469 409.25 119.425781 C 467.863281 100.984375 512.121094 104.675781 533.871094 129.796875 C 551.996094 150.726562 549.828125 181.476562 539.625 202.679688 C 531.257812 220.085938 513.449219 231.65625 496.230469 242.828125 C 475.324219 256.402344 453.699219 270.417969 447.269531 295.390625 C 442.402344 314.316406 449.484375 336.300781 466.238281 354.195312 C 476.96875 365.636719 490.035156 374.34375 502.699219 382.75 C 506.496094 385.28125 510.4375 387.894531 514.207031 390.527344 C 557.710938 420.855469 582.429688 459.34375 582.074219 496.140625 C 581.566406 546.578125 535.179688 586.179688 489.613281 599.203125 C 449.335938 610.730469 404.296875 607.507812 366.066406 590.371094 C 348.066406 582.300781 330.972656 571.046875 314.46875 560.171875 C 291.097656 544.785156 266.945312 528.851562 239.269531 521.199219 C 220.472656 515.996094 201.058594 514.878906 181.796875 514.878906 C 174.417969 514.878906 167.042969 515.046875 159.75 515.214844 C 152.058594 515.382812 144.132812 515.574219 136.378906 515.53125 C 93.488281 515.382812 64.148438 506.996094 44.085938 489.101562 C 9.835938 458.625 9.160156 396.515625 42.589844 358.765625 Z M 42.589844 358.765625 " fill-opacity="1" fill-rule="nonzero"/><path fill="#526f7b" d="M -106.953125 -302.058594 L -106.953125 680.507812 L 629.972656 680.507812 L 629.972656 -302.058594 Z M 479.023438 592.21875 C 437.316406 604.148438 391.453125 600.882812 351.871094 583.136719 C 308.035156 563.492188 272.121094 527.050781 225.816406 514.238281 C 193.042969 505.152344 158.332031 508.863281 124.3125 508.757812 C 90.320312 508.652344 53.921875 503.617188 28.523438 481 C -9.539062 447.089844 -7.160156 381.4375 26.667969 343.269531 C 60.476562 305.101562 117.105469 292.980469 167.097656 303.078125 C 183.242188 306.34375 199.511719 311.675781 215.804688 309.316406 C 251.359375 304.152344 272.394531 259.28125 258.441406 226.167969 C 244.488281 193.039062 203.941406 175.988281 168.699219 183.070312 C 150.933594 186.652344 134.621094 195.230469 117.273438 200.519531 C 99.949219 205.808594 79.992188 207.390625 64.691406 197.652344 C 50.167969 188.421875 42.9375 170.738281 41.464844 153.582031 C 38.429688 118.617188 57.417969 82.703125 88 65.507812 C 104.585938 56.191406 123.871094 52.101562 139.574219 41.355469 C 164.230469 24.472656 175.550781 -12.769531 157.847656 -36.839844 C 136.179688 -66.304688 85.027344 -64.257812 68.589844 -96.925781 C 55.207031 -123.503906 74.59375 -155.390625 97.949219 -173.832031 C 137.296875 -204.921875 188.113281 -218.789062 238.125 -222.519531 C 475.988281 -240.265625 626.914062 -131.46875 469.265625 -53.488281 C 426.355469 -32.265625 335.347656 -24.65625 317.707031 44.472656 C 306.054688 90.164062 351.136719 116.34375 395.605469 102.347656 C 530.261719 59.984375 557.40625 140.726562 532.328125 192.910156 C 513.042969 233.039062 451.414062 241.535156 440.328125 284.65625 C 435.417969 303.773438 444.566406 324.132812 458.054688 338.527344 C 471.542969 352.921875 488.992188 362.847656 505.179688 374.144531 C 542.316406 400.027344 575.742188 438.847656 575.300781 484.121094 C 574.773438 535.882812 528.765625 577.992188 479.023438 592.21875 Z M 479.023438 592.21875 " fill-opacity="1" fill-rule="nonzero"/><path fill="#526f7b" d="M 629.972656 -307.328125 L -106.953125 -307.328125 C -109.863281 -307.328125 -112.222656 -304.96875 -112.222656 -302.058594 L -112.222656 680.507812 C -112.222656 683.414062 -109.863281 685.777344 -106.953125 685.777344 L 629.972656 685.777344 C 632.878906 685.777344 635.242188 683.414062 635.242188 680.507812 L 635.242188 -302.058594 C 635.242188 -304.96875 632.878906 -307.328125 629.972656 -307.328125 Z M 624.703125 675.238281 L -101.683594 675.238281 L -101.683594 -296.792969 L 624.703125 -296.792969 Z M 25.003906 484.941406 C 54.066406 510.824219 95.585938 513.941406 124.273438 514.027344 C 132.132812 514.046875 140.164062 513.878906 147.917969 513.691406 C 173.464844 513.121094 199.894531 512.53125 224.382812 519.316406 C 250.453125 526.546875 272.878906 541.300781 296.609375 556.9375 C 313.472656 568.046875 330.921875 579.53125 349.703125 587.960938 C 374.171875 598.921875 401.273438 604.507812 428.292969 604.507812 C 445.957031 604.507812 463.597656 602.125 480.457031 597.296875 C 529.777344 583.179688 580 539.804688 580.546875 484.203125 C 581.097656 428.984375 535.445312 388.855469 508.171875 369.84375 C 504.316406 367.148438 500.332031 364.511719 496.476562 361.941406 C 483.765625 353.492188 471.773438 345.503906 461.867188 334.945312 C 447.601562 319.707031 441.445312 301.390625 445.410156 285.984375 C 450.804688 264.992188 469.792969 252.683594 489.898438 239.636719 C 508.339844 227.667969 527.414062 215.292969 537.066406 195.210938 C 551.335938 165.535156 548.46875 132.421875 529.777344 110.863281 C 515.488281 94.359375 478.835938 70.648438 394.023438 97.332031 C 371.199219 104.519531 347.320312 100.492188 333.179688 87.109375 C 322.324219 76.824219 318.636719 62.15625 322.808594 45.78125 C 335.242188 -2.90625 385.972656 -19.238281 430.738281 -33.65625 C 445.957031 -38.546875 460.332031 -43.183594 471.605469 -48.769531 C 540.546875 -82.867188 542.507812 -118.464844 537.53125 -136.65625 C 522.589844 -191.328125 406.355469 -240.347656 237.726562 -227.789062 C 179.113281 -223.425781 130.972656 -206.667969 94.679688 -177.984375 C 69.578125 -158.171875 49.242188 -123.609375 63.867188 -94.566406 C 73.457031 -75.535156 93.207031 -67.421875 112.300781 -59.558594 C 128.738281 -52.792969 144.273438 -46.40625 153.609375 -33.71875 C 160.121094 -24.867188 162.546875 -13.191406 160.460938 -0.863281 C 157.867188 14.398438 148.953125 28.539062 136.601562 36.992188 C 128.277344 42.679688 118.855469 46.410156 108.90625 50.351562 C 101.089844 53.453125 93.015625 56.632812 85.429688 60.890625 C 53.265625 78.972656 33.035156 117.25 36.214844 154.003906 C 38.070312 175.355469 47.40625 192.871094 61.867188 202.058594 C 80.140625 213.671875 102.921875 210.363281 118.8125 205.515625 C 125.914062 203.34375 132.890625 200.625 139.617188 198.011719 C 149.835938 194.027344 159.511719 190.257812 169.734375 188.191406 C 204.359375 181.214844 241.203125 198.769531 253.574219 228.171875 C 260.003906 243.429688 258.421875 262.800781 249.441406 278.691406 C 241.476562 292.792969 228.9375 302.042969 215.027344 304.066406 C 203.117188 305.796875 191.125 303.054688 178.417969 300.148438 C 174.980469 299.367188 171.546875 298.566406 168.109375 297.890625 C 112.300781 286.617188 55.226562 303.054688 22.707031 339.769531 C 5.402344 359.308594 -4.566406 386.265625 -4.652344 413.703125 C -4.714844 442.535156 5.824219 467.828125 25.003906 484.941406 Z M 30.589844 346.765625 C 60.664062 312.8125 113.839844 297.703125 166.023438 308.238281 C 169.375 308.914062 172.703125 309.671875 176.054688 310.453125 C 189.144531 313.445312 202.675781 316.542969 216.542969 314.519531 C 233.699219 312.035156 249.042969 300.863281 258.609375 283.898438 C 269.148438 265.222656 270.941406 242.3125 263.289062 224.105469 C 249.042969 190.257812 207.039062 169.960938 167.648438 177.882812 C 156.519531 180.117188 145.980469 184.226562 135.78125 188.210938 C 129.226562 190.761719 122.460938 193.417969 115.734375 195.460938 C 101.972656 199.65625 82.414062 202.671875 67.515625 193.1875 C 55.859375 185.765625 48.273438 171.160156 46.710938 153.121094 C 43.867188 120.347656 61.90625 86.203125 90.59375 70.101562 C 97.546875 66.203125 104.945312 63.273438 112.785156 60.175781 C 122.859375 56.191406 133.25 52.082031 142.566406 45.714844 C 157.214844 35.683594 167.792969 18.949219 170.851562 0.929688 C 173.421875 -14.246094 170.324219 -28.765625 162.105469 -39.9375 C 151.015625 -55.007812 133.375 -62.257812 116.328125 -69.273438 C 98.222656 -76.714844 81.128906 -83.753906 73.308594 -99.265625 C 61.339844 -123.039062 79.402344 -152.421875 101.234375 -169.679688 C 135.359375 -196.636719 182.84375 -213.078125 238.546875 -217.230469 C 399.589844 -229.242188 513.882812 -183.296875 527.394531 -133.832031 C 534.496094 -107.84375 513.042969 -80.972656 466.96875 -58.167969 C 456.390625 -52.941406 442.375 -48.429688 427.558594 -43.644531 C 382.539062 -29.144531 326.519531 -11.125 312.648438 43.207031 C 307.488281 63.441406 312.226562 81.757812 325.992188 94.800781 C 342.851562 110.777344 370.839844 115.730469 397.25 107.425781 C 455.863281 88.984375 500.121094 92.675781 521.871094 117.796875 C 539.996094 138.726562 537.828125 169.476562 527.625 190.679688 C 519.257812 208.085938 501.449219 219.65625 484.230469 230.828125 C 463.324219 244.402344 441.699219 258.417969 435.269531 283.390625 C 430.402344 302.316406 437.484375 324.300781 454.238281 342.195312 C 464.96875 353.636719 478.035156 362.34375 490.699219 370.75 C 494.496094 373.28125 498.4375 375.894531 502.207031 378.527344 C 545.710938 408.855469 570.429688 447.34375 570.074219 484.140625 C 569.566406 534.578125 523.179688 574.179688 477.613281 587.203125 C 437.335938 598.730469 392.296875 595.507812 354.066406 578.371094 C 336.066406 570.300781 318.972656 559.046875 302.46875 548.171875 C 279.097656 532.785156 254.945312 516.851562 227.269531 509.199219 C 208.472656 503.996094 189.058594 502.878906 169.796875 502.878906 C 162.417969 502.878906 155.042969 503.046875 147.75 503.214844 C 140.058594 503.382812 132.132812 503.574219 124.378906 503.53125 C 81.488281 503.382812 52.148438 494.996094 32.085938 477.101562 C -2.164062 446.625 -2.839844 384.515625 30.589844 346.765625 Z M 30.589844 346.765625 " fill-opacity="1" fill-rule="nonzero"/></svg>