<svg xmlns="http://www.w3.org/2000/svg" xmlns:xlink="http://www.w3.org/1999/xlink" width="800" zoomAndPan="magnify" viewBox="0 0 600 599.999999" height="800" preserveAspectRatio="xMidYMid meet" version="1.0"><defs><clipPath id="1a6a265f5e"><path d="M 7.515625 0 L 600 0 L 600 600 L 7.515625 600 Z M 7.515625 0 " clip-rule="nonzero"/></clipPath></defs><path fill="#000000" d="M 603.359375 -261.164062 L 12.773438 -261.164062 L 12.773438 788.789062 L 603.359375 788.789062 Z M 397.230469 637.761719 C 378.453125 615.910156 363.191406 591.046875 352.144531 564.429688 C 343.25 542.996094 335.234375 518.421875 321.003906 501.136719 C 310.964844 488.949219 292.234375 489.695312 283.054688 502.542969 C 274.421875 514.621094 264.320312 525.40625 252.484375 534.957031 C 231.664062 551.738281 199.84375 562.960938 179.394531 545.71875 C 159.410156 528.851562 164.15625 497.097656 172.960938 472.476562 C 183.328125 443.488281 196.855469 415.664062 213.238281 389.597656 C 218.574219 381.117188 224.328125 372.488281 225.953125 362.605469 C 227.558594 352.722656 223.648438 341.105469 214.402344 337.304688 C 209.636719 335.328125 204.234375 335.703125 199.117188 336.472656 C 167.953125 341.214844 133.738281 359.265625 107.558594 341.742188 C 87.507812 328.324219 83.953125 299.488281 90.453125 276.253906 C 111.492188 201.1875 206.472656 167.476562 231.972656 93.796875 C 252.855469 33.445312 220.242188 -31.382812 217.34375 -95.179688 C 215.851562 -128.144531 226.480469 -166.535156 257.007812 -179.03125 C 283.097656 -189.703125 314.503906 -175.867188 330.953125 -152.984375 C 347.421875 -130.101562 351.550781 -100.519531 350.9375 -72.320312 C 350.320312 -44.121094 347.421875 -16.074219 346.171875 12.101562 C 345.269531 32.546875 367.40625 77.675781 414.316406 -19.085938 C 427.296875 -45.855469 454.75 -63.886719 486.261719 -60.066406 C 528.910156 -54.902344 586.957031 16.296875 475.414062 179.425781 C 450.992188 215.113281 417.742188 246.691406 406.917969 288.550781 C 393.433594 340.644531 418.820312 396.710938 457.953125 433.628906 C 473.746094 448.519531 491.6875 461.058594 506.644531 476.78125 C 532.753906 504.191406 548.832031 540.996094 551.179688 578.792969 C 552.566406 601.128906 549.117188 624.230469 538.070312 643.710938 C 527.023438 663.191406 507.828125 678.585938 485.691406 681.945312 C 451.628906 687.085938 419.675781 663.894531 397.230469 637.761719 Z M 397.230469 637.761719 " fill-opacity="1" fill-rule="nonzero"/><g clip-path="url(#1a6a265f5e)"><path fill="#000000" d="M 211.875 -94.917969 C 212.929688 -71.527344 217.9375 -47.921875 222.769531 -25.101562 C 231.464844 15.988281 239.679688 54.773438 226.789062 91.996094 C 214.820312 126.5625 186.007812 152.894531 158.113281 178.347656 C 127.765625 206.0625 96.359375 234.746094 85.160156 274.757812 C 83.117188 282.050781 81.976562 289.957031 81.976562 297.90625 C 81.976562 316.683594 88.386719 335.527344 104.484375 346.308594 C 125.589844 360.453125 150.496094 353.929688 174.585938 347.628906 C 183.019531 345.429688 191.738281 343.148438 199.929688 341.894531 C 203.96875 341.28125 208.605469 340.863281 212.292969 342.378906 C 218.96875 345.125 221.714844 354.371094 220.53125 361.726562 C 219.210938 369.851562 214.554688 377.210938 209.660156 385.003906 L 208.605469 386.675781 C 192.023438 413.050781 178.296875 441.292969 167.800781 470.632812 C 160.378906 491.429688 151.527344 529.378906 175.859375 549.914062 C 198.414062 568.953125 232.324219 558.257812 255.929688 539.242188 C 267.921875 529.578125 278.550781 518.289062 287.511719 505.75 C 290.917969 500.984375 296.1875 498.152344 301.960938 497.953125 C 307.695312 497.757812 313.074219 500.195312 316.742188 504.652344 C 327.722656 518.003906 334.992188 536.320312 342 554.042969 C 343.667969 558.28125 345.335938 562.476562 347.027344 566.5625 C 358.335938 593.816406 373.820312 618.984375 393.035156 641.363281 C 410.101562 661.238281 444.929688 693.652344 486.460938 687.371094 C 509.167969 683.945312 530.230469 668.617188 542.835938 646.390625 C 553.464844 627.636719 558.253906 604.113281 556.648438 578.421875 C 554.234375 539.570312 537.457031 501.136719 510.617188 472.960938 C 501.769531 463.671875 491.863281 455.414062 482.265625 447.441406 C 475.390625 441.710938 468.253906 435.78125 461.710938 429.609375 C 419.894531 390.167969 400.460938 335.308594 412.210938 289.890625 C 419.675781 261.011719 438.058594 237.445312 457.515625 212.476562 C 465.070312 202.769531 472.886719 192.753906 479.917969 182.476562 C 559 66.828125 549.488281 2.480469 536.773438 -25.585938 C 524.785156 -52.046875 503.152344 -63.578125 486.898438 -65.53125 C 454.660156 -69.421875 424.222656 -52.136719 409.375 -21.5 C 382.035156 34.917969 366.574219 35.929688 362.488281 34.898438 C 355.351562 33.097656 351.308594 20.335938 351.660156 12.34375 C 352.1875 0.59375 353 -11.398438 353.8125 -22.972656 C 354.933594 -39.070312 356.074219 -55.714844 356.425781 -72.210938 C 357.195312 -107.941406 350.320312 -135.4375 335.410156 -156.191406 C 319.003906 -178.984375 285.226562 -196.53125 254.921875 -184.125 C 220.792969 -170.113281 210.363281 -127.3125 211.875 -94.917969 Z M 326.515625 -149.753906 C 340 -131.023438 346.214844 -105.722656 345.46875 -72.429688 C 345.117188 -56.199219 343.976562 -39.683594 342.875 -23.71875 C 342.0625 -12.078125 341.230469 -0.0429688 340.722656 11.859375 C 340.242188 23.34375 345.953125 42.035156 359.832031 45.546875 C 377.136719 49.917969 397.144531 28.988281 419.28125 -16.710938 C 432.0625 -43.089844 458.085938 -57.957031 485.625 -54.640625 C 498.914062 -53.035156 516.703125 -43.375 526.824219 -21.0625 C 538.597656 4.898438 546.964844 65.070312 470.910156 176.285156 C 464.082031 186.277344 456.375 196.160156 448.90625 205.734375 C 429.625 230.464844 409.683594 256.046875 401.625 287.144531 C 388.886719 336.382812 409.53125 395.4375 454.222656 437.601562 C 461.027344 444.015625 468.277344 450.054688 475.28125 455.898438 C 484.617188 463.671875 494.277344 471.710938 502.691406 480.539062 C 527.769531 506.871094 543.449219 542.796875 545.710938 579.101562 C 547.160156 602.664062 542.878906 624.054688 533.304688 640.964844 C 522.367188 660.269531 504.25 673.558594 484.855469 676.5 C 448.554688 681.992188 416.996094 652.34375 401.402344 634.179688 C 382.933594 612.679688 368.066406 588.5 357.21875 562.324219 C 355.546875 558.304688 353.902344 554.152344 352.253906 549.957031 C 344.917969 531.445312 337.34375 512.316406 325.261719 497.644531 C 319.421875 490.53125 310.792969 486.644531 301.632812 486.949219 C 292.410156 487.257812 284.019531 491.78125 278.617188 499.335938 C 270.117188 511.238281 260.457031 521.496094 249.078125 530.675781 C 229.621094 546.355469 200.65625 556.4375 182.976562 541.503906 C 163.714844 525.25 171.710938 492.417969 178.1875 474.300781 C 188.398438 445.730469 201.773438 418.191406 217.9375 392.496094 L 218.992188 390.847656 C 224.285156 382.480469 229.730469 373.828125 231.421875 363.484375 C 233.332031 351.777344 228.832031 337.285156 216.53125 332.210938 C 210.382812 329.664062 203.882812 330.191406 198.347656 331.023438 C 189.585938 332.363281 180.582031 334.714844 171.863281 336.976562 C 149.132812 342.925781 127.65625 348.527344 110.65625 337.152344 C 92.429688 324.941406 90.167969 297.773438 95.789062 277.703125 C 106.15625 240.71875 135.011719 214.34375 165.582031 186.453125 C 194.460938 160.078125 224.351562 132.777344 237.21875 95.574219 C 242.445312 80.488281 244.421875 65.136719 244.421875 49.65625 C 244.421875 23.980469 238.933594 -1.976562 233.554688 -27.386719 C 228.808594 -49.785156 223.910156 -72.957031 222.878906 -95.445312 C 221.605469 -124.28125 230.28125 -162.164062 259.136719 -173.980469 C 284.21875 -184.210938 312.570312 -169.148438 326.515625 -149.753906 Z M 607.25 792.652344 C 608.28125 791.621094 608.851562 790.238281 608.851562 788.765625 L 608.851562 -261.164062 C 608.851562 -262.613281 608.28125 -264.019531 607.25 -265.050781 C 606.214844 -266.085938 604.8125 -266.65625 603.359375 -266.65625 L 12.773438 -266.65625 C 9.742188 -266.65625 7.285156 -264.195312 7.285156 -261.164062 L 7.285156 788.765625 C 7.285156 791.796875 9.742188 794.257812 12.773438 794.257812 L 603.359375 794.257812 C 604.8125 794.277344 606.214844 793.6875 607.25 792.652344 Z M 18.265625 783.277344 L 18.265625 -255.675781 L 597.871094 -255.675781 L 597.871094 783.296875 Z M 18.265625 783.277344 " fill-opacity="1" fill-rule="nonzero"/></g><path fill="#2e44a4" d="M 591.359375 -273.164062 L 0.773438 -273.164062 L 0.773438 776.789062 L 591.359375 776.789062 Z M 385.230469 625.761719 C 366.453125 603.910156 351.191406 579.046875 340.144531 552.429688 C 331.25 530.996094 323.234375 506.421875 309.003906 489.136719 C 298.964844 476.949219 280.234375 477.695312 271.054688 490.542969 C 262.421875 502.621094 252.320312 513.40625 240.484375 522.957031 C 219.664062 539.738281 187.84375 550.960938 167.394531 533.71875 C 147.410156 516.851562 152.15625 485.097656 160.960938 460.476562 C 171.328125 431.488281 184.855469 403.664062 201.238281 377.597656 C 206.574219 369.117188 212.328125 360.488281 213.953125 350.605469 C 215.558594 340.722656 211.648438 329.105469 202.402344 325.304688 C 197.636719 323.328125 192.234375 323.703125 187.117188 324.472656 C 155.953125 329.214844 121.738281 347.265625 95.558594 329.742188 C 75.507812 316.324219 71.953125 287.488281 78.453125 264.253906 C 99.492188 189.1875 194.472656 155.476562 219.972656 81.796875 C 240.855469 21.445312 208.242188 -43.382812 205.34375 -107.179688 C 203.851562 -140.144531 214.480469 -178.535156 245.007812 -191.03125 C 271.097656 -201.703125 302.503906 -187.867188 318.953125 -164.984375 C 335.421875 -142.101562 339.550781 -112.519531 338.9375 -84.320312 C 338.320312 -56.121094 335.421875 -28.074219 334.171875 0.101562 C 333.269531 20.546875 355.40625 65.675781 402.316406 -31.085938 C 415.296875 -57.855469 442.75 -75.886719 474.261719 -72.066406 C 516.910156 -66.902344 574.957031 4.296875 463.414062 167.425781 C 438.992188 203.113281 405.742188 234.691406 394.917969 276.550781 C 381.433594 328.644531 406.820312 384.710938 445.953125 421.628906 C 461.746094 436.519531 479.6875 449.058594 494.644531 464.78125 C 520.753906 492.191406 536.832031 528.996094 539.179688 566.792969 C 540.566406 589.128906 537.117188 612.230469 526.070312 631.710938 C 515.023438 651.191406 495.828125 666.585938 473.691406 669.945312 C 439.628906 675.085938 407.675781 651.894531 385.230469 625.761719 Z M 385.230469 625.761719 " fill-opacity="1" fill-rule="nonzero"/><path fill="#2e44a4" d="M 199.875 -106.917969 C 200.929688 -83.527344 205.9375 -59.921875 210.769531 -37.101562 C 219.464844 3.988281 227.679688 42.773438 214.789062 79.996094 C 202.820312 114.5625 174.007812 140.894531 146.113281 166.347656 C 115.765625 194.0625 84.359375 222.746094 73.160156 262.757812 C 71.117188 270.050781 69.976562 277.957031 69.976562 285.90625 C 69.976562 304.683594 76.386719 323.527344 92.484375 334.308594 C 113.589844 348.453125 138.496094 341.929688 162.585938 335.628906 C 171.019531 333.429688 179.738281 331.148438 187.929688 329.894531 C 191.96875 329.28125 196.605469 328.863281 200.292969 330.378906 C 206.96875 333.125 209.714844 342.371094 208.53125 349.726562 C 207.210938 357.851562 202.554688 365.210938 197.660156 373.003906 L 196.605469 374.675781 C 180.023438 401.050781 166.296875 429.292969 155.800781 458.632812 C 148.378906 479.429688 139.527344 517.378906 163.859375 537.914062 C 186.414062 556.953125 220.324219 546.257812 243.929688 527.242188 C 255.921875 517.578125 266.550781 506.289062 275.511719 493.75 C 278.917969 488.984375 284.1875 486.152344 289.960938 485.953125 C 295.695312 485.757812 301.074219 488.195312 304.742188 492.652344 C 315.722656 506.003906 322.992188 524.320312 330 542.042969 C 331.667969 546.28125 333.335938 550.476562 335.027344 554.5625 C 346.335938 581.816406 361.820312 606.984375 381.035156 629.363281 C 398.101562 649.238281 432.929688 681.652344 474.460938 675.371094 C 497.167969 671.945312 518.230469 656.617188 530.835938 634.390625 C 541.464844 615.636719 546.253906 592.113281 544.648438 566.421875 C 542.234375 527.570312 525.457031 489.136719 498.617188 460.960938 C 489.769531 451.671875 479.863281 443.414062 470.265625 435.441406 C 463.390625 429.710938 456.253906 423.78125 449.710938 417.609375 C 407.894531 378.167969 388.460938 323.308594 400.210938 277.890625 C 407.675781 249.011719 426.058594 225.445312 445.515625 200.476562 C 453.070312 190.769531 460.886719 180.753906 467.917969 170.476562 C 547 54.828125 537.488281 -9.519531 524.773438 -37.585938 C 512.785156 -64.046875 491.152344 -75.578125 474.898438 -77.53125 C 442.660156 -81.421875 412.222656 -64.136719 397.375 -33.5 C 370.035156 22.917969 354.574219 23.929688 350.488281 22.898438 C 343.351562 21.097656 339.308594 8.335938 339.660156 0.34375 C 340.1875 -11.40625 341 -23.398438 341.8125 -34.972656 C 342.933594 -51.070312 344.074219 -67.714844 344.425781 -84.210938 C 345.195312 -119.941406 338.320312 -147.4375 323.410156 -168.191406 C 307.003906 -190.984375 273.226562 -208.53125 242.921875 -196.125 C 208.792969 -182.113281 198.363281 -139.3125 199.875 -106.917969 Z M 314.515625 -161.753906 C 328 -143.023438 334.214844 -117.722656 333.46875 -84.429688 C 333.117188 -68.199219 331.976562 -51.683594 330.875 -35.71875 C 330.0625 -24.078125 329.230469 -12.042969 328.722656 -0.140625 C 328.242188 11.34375 333.953125 30.035156 347.832031 33.546875 C 365.136719 37.917969 385.144531 16.988281 407.28125 -28.710938 C 420.0625 -55.089844 446.085938 -69.957031 473.625 -66.640625 C 486.914062 -65.035156 504.703125 -55.375 514.824219 -33.0625 C 526.597656 -7.101562 534.964844 53.070312 458.910156 164.285156 C 452.082031 174.277344 444.375 184.160156 436.90625 193.734375 C 417.625 218.464844 397.683594 244.046875 389.625 275.144531 C 376.886719 324.382812 397.53125 383.4375 442.222656 425.601562 C 449.027344 432.015625 456.277344 438.054688 463.28125 443.898438 C 472.617188 451.671875 482.277344 459.710938 490.691406 468.539062 C 515.769531 494.871094 531.449219 530.796875 533.710938 567.101562 C 535.160156 590.664062 530.878906 612.054688 521.304688 628.964844 C 510.367188 648.269531 492.25 661.558594 472.855469 664.5 C 436.554688 669.992188 404.996094 640.34375 389.402344 622.179688 C 370.933594 600.679688 356.066406 576.5 345.21875 550.324219 C 343.546875 546.304688 341.902344 542.152344 340.253906 537.957031 C 332.917969 519.445312 325.34375 500.316406 313.261719 485.644531 C 307.421875 478.53125 298.792969 474.644531 289.632812 474.949219 C 280.410156 475.257812 272.019531 479.78125 266.617188 487.335938 C 258.117188 499.238281 248.457031 509.496094 237.078125 518.675781 C 217.621094 534.355469 188.65625 544.4375 170.976562 529.503906 C 151.714844 513.25 159.710938 480.417969 166.1875 462.300781 C 176.398438 433.730469 189.773438 406.191406 205.9375 380.496094 L 206.992188 378.847656 C 212.285156 370.480469 217.730469 361.828125 219.421875 351.484375 C 221.332031 339.777344 216.832031 325.285156 204.53125 320.210938 C 198.382812 317.664062 191.882812 318.191406 186.347656 319.023438 C 177.585938 320.363281 168.582031 322.714844 159.863281 324.976562 C 137.132812 330.925781 115.65625 336.527344 98.65625 325.152344 C 80.429688 312.941406 78.167969 285.773438 83.789062 265.703125 C 94.15625 228.71875 123.011719 202.34375 153.582031 174.453125 C 182.460938 148.078125 212.351562 120.777344 225.21875 83.574219 C 230.445312 68.488281 232.421875 53.136719 232.421875 37.65625 C 232.421875 11.980469 226.933594 -13.976562 221.554688 -39.386719 C 216.808594 -61.785156 211.910156 -84.957031 210.878906 -107.445312 C 209.605469 -136.28125 218.28125 -174.164062 247.136719 -185.980469 C 272.21875 -196.210938 300.570312 -181.148438 314.515625 -161.753906 Z M 595.25 780.652344 C 596.28125 779.621094 596.851562 778.238281 596.851562 776.765625 L 596.851562 -273.164062 C 596.851562 -274.613281 596.28125 -276.019531 595.25 -277.050781 C 594.214844 -278.085938 592.8125 -278.65625 591.359375 -278.65625 L 0.773438 -278.65625 C -2.257812 -278.65625 -4.714844 -276.195312 -4.714844 -273.164062 L -4.714844 776.765625 C -4.714844 779.796875 -2.257812 782.257812 0.773438 782.257812 L 591.359375 782.257812 C 592.8125 782.277344 594.214844 781.6875 595.25 780.652344 Z M 6.265625 771.277344 L 6.265625 -267.675781 L 585.871094 -267.675781 L 585.871094 771.296875 Z M 6.265625 771.277344 " fill-opacity="1" fill-rule="nonzero"/></svg>