<svg xmlns="http://www.w3.org/2000/svg" xmlns:xlink="http://www.w3.org/1999/xlink" width="800" zoomAndPan="magnify" viewBox="0 0 600 599.999999" height="800" preserveAspectRatio="xMidYMid meet" version="1.0"><defs><clipPath id="0b6144af04"><path d="M 111.96875 232.476562 L 423 232.476562 L 423 440.976562 L 111.96875 440.976562 Z M 111.96875 232.476562 " clip-rule="nonzero"/></clipPath><clipPath id="9a50bf14cc"><path d="M 0 0 L 600 0 L 600 251.824219 L 0 251.824219 Z M 0 0 " clip-rule="nonzero"/></clipPath><clipPath id="7bb61f9985"><path d="M 0 26.039062 L 119.273438 26.039062 L 119.273438 600 L 0 600 Z M 0 26.039062 " clip-rule="nonzero"/></clipPath><clipPath id="a01082452f"><path d="M 412.507812 9.417969 L 600 9.417969 L 600 600 L 412.507812 600 Z M 412.507812 9.417969 " clip-rule="nonzero"/></clipPath><clipPath id="a87687a0cb"><path d="M 111.96875 226.386719 L 423 226.386719 L 423 434.886719 L 111.96875 434.886719 Z M 111.96875 226.386719 " clip-rule="nonzero"/></clipPath></defs><path fill="#000000" d="M 113.613281 234.222656 L 113.613281 439.359375 L 421.316406 439.359375 L 421.316406 234.222656 Z M 339.726562 272.476562 C 342.285156 263.945312 354.511719 260.078125 367.035156 263.832031 C 379.5625 267.589844 387.640625 277.546875 385.089844 286.070312 C 382.53125 294.601562 370.304688 298.46875 357.78125 294.714844 C 345.257812 290.957031 337.167969 281.007812 339.726562 272.476562 Z M 212.226562 346.597656 C 227.453125 363.769531 231.078125 385.429688 220.324219 394.96875 C 209.570312 404.503906 188.503906 398.308594 173.277344 381.136719 C 169.082031 376.398438 165.773438 371.328125 163.398438 366.261719 C 162.679688 366.316406 161.957031 366.347656 161.21875 366.347656 C 144.894531 366.347656 131.660156 353.113281 131.660156 336.789062 C 131.660156 323.136719 140.921875 311.652344 153.503906 308.257812 C 143.21875 292.675781 141.808594 275.480469 151.070312 267.265625 C 161.515625 258.003906 181.675781 263.578125 196.777344 279.632812 C 204.175781 272.457031 217.054688 267.699219 231.710938 267.699219 C 254.664062 267.699219 273.273438 279.355469 273.273438 293.726562 C 273.273438 308.105469 254.664062 319.753906 231.710938 319.753906 C 224.679688 319.753906 218.054688 318.65625 212.246094 316.730469 C 211.722656 321.890625 209.75 326.339844 206.214844 329.46875 C 203.539062 331.84375 200.222656 333.238281 196.519531 333.738281 C 202 336.824219 207.40625 341.15625 212.226562 346.597656 Z M 401.097656 388.410156 C 397.027344 407.332031 373.144531 418.238281 347.757812 412.777344 C 332.601562 409.515625 320.335938 401.15625 313.777344 390.921875 C 307.335938 391.054688 300.511719 390.960938 293.464844 390.703125 C 243.042969 388.84375 230.277344 369.355469 232.425781 355.042969 C 234.550781 340.902344 252.035156 326.382812 299.53125 338.449219 C 299.503906 338.414062 299.484375 338.382812 299.457031 338.347656 C 284.960938 317.789062 282.796875 294.367188 294.625 286.023438 C 306.449219 277.683594 327.785156 287.597656 342.285156 308.160156 C 346 313.425781 348.894531 318.878906 350.960938 324.21875 C 362.777344 313.039062 379.097656 310.539062 389.179688 319.011719 C 399.46875 327.652344 399.632812 344.675781 390.074219 358.398438 C 398.929688 366.867188 403.386719 377.765625 401.097656 388.410156 Z M 401.097656 388.410156 " fill-opacity="1" fill-rule="nonzero"/><g clip-path="url(#0b6144af04)"><path fill="#000000" d="M 357.304688 296.292969 C 360.675781 297.304688 364.027344 297.777344 367.210938 297.777344 C 376.65625 297.777344 384.558594 293.5625 386.660156 286.546875 C 389.476562 277.160156 380.878906 266.265625 367.5 262.253906 C 361.128906 260.347656 354.609375 260.25 349.136719 261.976562 C 343.441406 263.78125 339.539062 267.339844 338.140625 272.003906 C 336.746094 276.664062 338.046875 281.78125 341.808594 286.421875 C 345.433594 290.878906 350.933594 294.386719 357.304688 296.292969 Z M 341.296875 272.949219 C 342.367188 269.363281 345.511719 266.582031 350.136719 265.117188 C 352.414062 264.390625 354.90625 264.035156 357.511719 264.035156 C 360.445312 264.035156 363.515625 264.496094 366.5625 265.40625 C 378.195312 268.890625 385.804688 277.949219 383.511719 285.597656 C 381.214844 293.246094 369.890625 296.628906 358.246094 293.140625 C 352.5 291.417969 347.570312 288.300781 344.367188 284.347656 C 341.316406 280.585938 340.226562 276.535156 341.296875 272.949219 Z M 161.214844 367.992188 C 161.589844 367.992188 161.976562 367.988281 162.382812 367.96875 C 164.859375 372.992188 168.101562 377.78125 172.039062 382.226562 C 179.605469 390.765625 188.832031 396.945312 198.007812 399.648438 C 201.324219 400.625 204.492188 401.105469 207.460938 401.105469 C 212.957031 401.105469 217.746094 399.445312 221.410156 396.195312 C 227.054688 391.199219 229.265625 383.089844 227.640625 373.375 C 226.0625 363.933594 221.023438 354.042969 213.457031 345.503906 C 209.65625 341.214844 205.335938 337.441406 200.804688 334.433594 C 203.25 333.613281 205.425781 332.363281 207.308594 330.699219 C 210.589844 327.792969 212.746094 323.734375 213.609375 318.878906 C 219.253906 320.535156 225.460938 321.40625 231.710938 321.40625 C 255.535156 321.40625 274.917969 308.992188 274.917969 293.734375 C 274.917969 278.472656 255.535156 266.0625 231.710938 266.0625 C 217.839844 266.0625 204.960938 270.253906 196.851562 277.34375 C 181.164062 261.4375 160.8125 256.445312 149.980469 266.042969 C 140.566406 274.390625 141.039062 291.15625 150.960938 307.328125 C 138.523438 311.652344 130.015625 323.46875 130.015625 336.796875 C 130.015625 353.996094 144.015625 367.992188 161.214844 367.992188 Z M 153.933594 309.84375 C 154.445312 309.703125 154.851562 309.328125 155.042969 308.835938 C 155.234375 308.34375 155.167969 307.789062 154.878906 307.347656 C 144.921875 292.265625 143.777344 275.929688 152.164062 268.496094 C 161.910156 259.855469 180.984375 265.242188 195.582031 280.757812 C 195.882812 281.078125 196.296875 281.261719 196.738281 281.277344 C 197.171875 281.289062 197.605469 281.117188 197.921875 280.808594 C 205.328125 273.625 217.957031 269.339844 231.710938 269.339844 C 253.726562 269.339844 271.628906 280.277344 271.628906 293.722656 C 271.628906 307.164062 253.71875 318.101562 231.710938 318.101562 C 225.113281 318.101562 218.5625 317.082031 212.769531 315.15625 C 212.292969 315 211.773438 315.066406 211.351562 315.335938 C 210.933594 315.605469 210.664062 316.050781 210.609375 316.550781 C 210.109375 321.453125 208.210938 325.488281 205.117188 328.226562 C 202.75 330.324219 199.785156 331.625 196.292969 332.09375 C 195.59375 332.1875 195.027344 332.71875 194.898438 333.414062 C 194.765625 334.113281 195.085938 334.808594 195.707031 335.160156 C 201.179688 338.242188 206.460938 342.566406 210.992188 347.675781 C 218.15625 355.753906 222.917969 365.074219 224.390625 373.90625 C 225.824219 382.464844 223.988281 389.5 219.226562 393.722656 C 214.464844 397.945312 207.253906 398.925781 198.933594 396.480469 C 190.339844 393.953125 181.664062 388.113281 174.5 380.035156 C 170.507812 375.539062 167.273438 370.664062 164.878906 365.554688 C 164.609375 364.972656 164.023438 364.605469 163.390625 364.605469 C 163.351562 364.605469 163.3125 364.605469 163.273438 364.613281 C 162.488281 364.671875 161.832031 364.699219 161.21875 364.699219 C 145.828125 364.699219 133.304688 352.175781 133.304688 336.785156 C 133.304688 324.199219 141.785156 313.117188 153.933594 309.84375 Z M 421.316406 232.578125 L 113.613281 232.578125 C 112.707031 232.578125 111.96875 233.3125 111.96875 234.222656 L 111.96875 439.359375 C 111.96875 440.265625 112.707031 441.003906 113.613281 441.003906 L 421.316406 441.003906 C 422.226562 441.003906 422.960938 440.265625 422.960938 439.359375 L 422.960938 234.222656 C 422.960938 233.3125 422.226562 232.578125 421.316406 232.578125 Z M 419.671875 437.714844 L 115.257812 437.714844 L 115.257812 235.867188 L 419.671875 235.867188 Z M 295.820312 335.847656 C 265.328125 328.832031 249.410156 333.539062 241.359375 338.886719 C 235.511719 342.773438 231.761719 348.425781 230.804688 354.792969 C 229.835938 361.246094 231.808594 367.828125 236.375 373.328125 C 242.972656 381.28125 258.21875 391.035156 293.40625 392.335938 C 300.386719 392.59375 306.941406 392.671875 312.902344 392.574219 C 320.097656 403.269531 332.621094 411.195312 347.40625 414.378906 C 351.917969 415.351562 356.4375 415.832031 360.859375 415.832031 C 368.804688 415.832031 376.421875 414.277344 383.097656 411.226562 C 393.652344 406.40625 400.617188 398.421875 402.695312 388.75 C 404.945312 378.304688 401.117188 367.230469 392.191406 358.171875 C 401.546875 343.792969 400.789062 326.609375 390.234375 317.742188 C 380.203125 309.316406 363.9375 310.988281 351.597656 321.429688 C 349.519531 316.550781 346.839844 311.769531 343.617188 307.203125 C 336.441406 297.03125 327.390625 289.058594 318.136719 284.757812 C 308.582031 280.316406 299.890625 280.289062 293.667969 284.675781 C 287.449219 289.0625 284.558594 297.257812 285.527344 307.75 C 286.367188 316.78125 289.992188 326.632812 295.820312 335.847656 Z M 295.570312 287.367188 C 306.632812 279.566406 326.984375 289.3125 340.933594 309.097656 C 344.480469 314.125 347.335938 319.414062 349.425781 324.804688 C 349.625 325.320312 350.066406 325.695312 350.597656 325.820312 C 351.128906 325.9375 351.6875 325.785156 352.089844 325.410156 C 363.390625 314.714844 378.886719 312.5 388.121094 320.261719 C 397.652344 328.265625 397.910156 344.253906 388.71875 357.449219 C 388.257812 358.113281 388.34375 359.015625 388.929688 359.574219 C 397.726562 367.992188 401.566406 378.371094 399.488281 388.0625 C 397.632812 396.691406 391.324219 403.859375 381.734375 408.242188 C 371.980469 412.691406 360.035156 413.738281 348.097656 411.167969 C 334.007812 408.136719 321.695312 400.234375 315.160156 390.035156 C 314.855469 389.558594 314.335938 389.277344 313.777344 389.277344 C 313.765625 389.277344 313.757812 389.277344 313.746094 389.277344 C 307.601562 389.402344 300.800781 389.324219 293.523438 389.0625 C 259.554688 387.804688 245.070312 378.675781 238.898438 371.234375 C 233.828125 365.125 233.464844 359.1875 234.050781 355.285156 C 234.632812 351.4375 236.683594 345.945312 243.175781 341.632812 C 251.023438 336.414062 267.105469 331.902344 299.128906 340.039062 C 299.792969 340.210938 300.496094 339.941406 300.890625 339.375 C 301.28125 338.800781 301.273438 338.054688 300.871094 337.492188 L 299.550781 338.367188 L 300.800781 337.402344 C 293.953125 327.6875 289.691406 317.050781 288.800781 307.453125 C 287.953125 298.175781 290.355469 291.042969 295.570312 287.367188 Z M 295.570312 287.367188 " fill-opacity="1" fill-rule="nonzero"/></g><g clip-path="url(#9a50bf14cc)"><path fill="#003b1f" d="M 0 0 L 600.050781 0 L 600.050781 251.824219 L 0 251.824219 Z M 0 0 " fill-opacity="1" fill-rule="nonzero"/></g><g clip-path="url(#7bb61f9985)"><path fill="#003b1f" d="M 119.273438 26.039062 L 119.273438 618.773438 L -60.726562 618.773438 L -60.726562 26.039062 Z M 119.273438 26.039062 " fill-opacity="1" fill-rule="nonzero"/></g><g clip-path="url(#a01082452f)"><path fill="#003b1f" d="M 412.507812 602.25 L 412.507812 9.125 L 621.078125 9.125 L 621.078125 602.25 Z M 412.507812 602.25 " fill-opacity="1" fill-rule="nonzero"/></g><path fill="#003b1f" d="M -4.835938 420 L 587.898438 420 L 587.898438 600 L -4.835938 600 Z M -4.835938 420 " fill-opacity="1" fill-rule="nonzero"/><path fill="#003b1f" d="M 113.613281 228.132812 L 113.613281 433.269531 L 421.316406 433.269531 L 421.316406 228.132812 Z M 339.726562 266.386719 C 342.285156 257.855469 354.511719 253.988281 367.035156 257.746094 C 379.5625 261.5 387.640625 271.457031 385.089844 279.984375 C 382.53125 288.511719 370.304688 292.382812 357.78125 288.625 C 345.257812 284.871094 337.167969 274.917969 339.726562 266.386719 Z M 212.226562 340.507812 C 227.453125 357.683594 231.078125 379.339844 220.324219 388.878906 C 209.570312 398.414062 188.503906 392.21875 173.277344 375.046875 C 169.082031 370.308594 165.773438 365.238281 163.398438 360.175781 C 162.679688 360.226562 161.957031 360.261719 161.21875 360.261719 C 144.894531 360.261719 131.660156 347.027344 131.660156 330.703125 C 131.660156 317.046875 140.921875 305.5625 153.503906 302.167969 C 143.21875 286.585938 141.808594 269.394531 151.070312 261.179688 C 161.515625 251.917969 181.675781 257.488281 196.777344 273.542969 C 204.175781 266.367188 217.054688 261.613281 231.710938 261.613281 C 254.664062 261.613281 273.273438 273.265625 273.273438 287.640625 C 273.273438 302.015625 254.664062 313.664062 231.710938 313.664062 C 224.679688 313.664062 218.054688 312.566406 212.246094 310.640625 C 211.722656 315.804688 209.75 320.25 206.214844 323.378906 C 203.539062 325.753906 200.222656 327.148438 196.519531 327.648438 C 202 330.734375 207.40625 335.070312 212.226562 340.507812 Z M 401.097656 382.320312 C 397.027344 401.242188 373.144531 412.148438 347.757812 406.691406 C 332.601562 403.429688 320.335938 395.066406 313.777344 384.832031 C 307.335938 384.964844 300.511719 384.871094 293.464844 384.617188 C 243.042969 382.753906 230.277344 363.265625 232.425781 348.953125 C 234.550781 334.8125 252.035156 320.296875 299.53125 332.359375 C 299.503906 332.324219 299.484375 332.292969 299.457031 332.261719 C 284.960938 311.699219 282.796875 288.277344 294.625 279.9375 C 306.449219 271.597656 327.785156 281.507812 342.285156 302.070312 C 346 307.339844 348.894531 312.789062 350.960938 318.132812 C 362.777344 306.949219 379.097656 304.449219 389.179688 312.921875 C 399.46875 321.566406 399.632812 338.585938 390.074219 352.308594 C 398.929688 360.78125 403.386719 371.679688 401.097656 382.320312 Z M 401.097656 382.320312 " fill-opacity="1" fill-rule="nonzero"/><g clip-path="url(#a87687a0cb)"><path fill="#003b1f" d="M 357.304688 290.203125 C 360.675781 291.21875 364.027344 291.691406 367.210938 291.691406 C 376.65625 291.691406 384.558594 287.472656 386.660156 280.457031 C 389.476562 271.070312 380.878906 260.179688 367.5 256.164062 C 361.128906 254.257812 354.609375 254.160156 349.136719 255.890625 C 343.441406 257.691406 339.539062 261.25 338.140625 265.914062 C 336.746094 270.578125 338.046875 275.695312 341.808594 280.332031 C 345.433594 284.789062 350.933594 288.296875 357.304688 290.203125 Z M 341.296875 266.859375 C 342.367188 263.277344 345.511719 260.492188 350.136719 259.027344 C 352.414062 258.304688 354.90625 257.949219 357.511719 257.949219 C 360.445312 257.949219 363.515625 258.410156 366.5625 259.316406 C 378.195312 262.800781 385.804688 271.859375 383.511719 279.507812 C 381.214844 287.160156 369.890625 290.539062 358.246094 287.054688 C 352.5 285.332031 347.570312 282.210938 344.367188 278.257812 C 341.316406 274.496094 340.226562 270.445312 341.296875 266.859375 Z M 161.214844 361.90625 C 161.589844 361.90625 161.976562 361.898438 162.382812 361.878906 C 164.859375 366.902344 168.101562 371.691406 172.039062 376.136719 C 179.605469 384.675781 188.832031 390.859375 198.007812 393.5625 C 201.324219 394.535156 204.492188 395.015625 207.460938 395.015625 C 212.957031 395.015625 217.746094 393.359375 221.410156 390.109375 C 227.054688 385.109375 229.265625 377 227.640625 367.285156 C 226.0625 357.847656 221.023438 347.953125 213.457031 339.417969 C 209.65625 335.128906 205.335938 331.351562 200.804688 328.347656 C 203.25 327.523438 205.425781 326.273438 207.308594 324.609375 C 210.589844 321.703125 212.746094 317.644531 213.609375 312.789062 C 219.253906 314.449219 225.460938 315.316406 231.710938 315.316406 C 255.535156 315.316406 274.917969 302.90625 274.917969 287.644531 C 274.917969 272.386719 255.535156 259.972656 231.710938 259.972656 C 217.839844 259.972656 204.960938 264.164062 196.851562 271.253906 C 181.164062 255.351562 160.8125 250.359375 149.980469 259.953125 C 140.566406 268.300781 141.039062 285.066406 150.960938 301.242188 C 138.523438 305.5625 130.015625 317.382812 130.015625 330.707031 C 130.015625 347.90625 144.015625 361.90625 161.214844 361.90625 Z M 153.933594 303.753906 C 154.445312 303.617188 154.851562 303.242188 155.042969 302.746094 C 155.234375 302.253906 155.167969 301.703125 154.878906 301.261719 C 144.921875 286.179688 143.777344 269.839844 152.164062 262.40625 C 161.910156 253.765625 180.984375 259.152344 195.582031 274.667969 C 195.882812 274.992188 196.296875 275.175781 196.738281 275.1875 C 197.171875 275.199219 197.605469 275.03125 197.921875 274.722656 C 205.328125 267.539062 217.957031 263.25 231.710938 263.25 C 253.726562 263.25 271.628906 274.1875 271.628906 287.632812 C 271.628906 301.078125 253.71875 312.015625 231.710938 312.015625 C 225.113281 312.015625 218.5625 310.996094 212.769531 309.066406 C 212.292969 308.910156 211.773438 308.976562 211.351562 309.246094 C 210.933594 309.515625 210.664062 309.960938 210.609375 310.460938 C 210.109375 315.363281 208.210938 319.402344 205.117188 322.136719 C 202.75 324.234375 199.785156 325.539062 196.292969 326.003906 C 195.59375 326.097656 195.027344 326.628906 194.898438 327.328125 C 194.765625 328.023438 195.085938 328.722656 195.707031 329.070312 C 201.179688 332.15625 206.460938 336.476562 210.992188 341.585938 C 218.15625 349.664062 222.917969 358.984375 224.390625 367.816406 C 225.824219 376.375 223.988281 383.414062 219.226562 387.636719 C 214.464844 391.859375 207.253906 392.839844 198.933594 390.390625 C 190.339844 387.867188 181.664062 382.023438 174.5 373.949219 C 170.507812 369.449219 167.273438 364.574219 164.878906 359.464844 C 164.609375 358.886719 164.023438 358.515625 163.390625 358.515625 C 163.351562 358.515625 163.3125 358.515625 163.273438 358.523438 C 162.488281 358.582031 161.832031 358.609375 161.21875 358.609375 C 145.828125 358.609375 133.304688 346.085938 133.304688 330.695312 C 133.304688 318.113281 141.785156 307.027344 153.933594 303.753906 Z M 421.316406 226.488281 L 113.613281 226.488281 C 112.707031 226.488281 111.96875 227.226562 111.96875 228.132812 L 111.96875 433.269531 C 111.96875 434.175781 112.707031 434.914062 113.613281 434.914062 L 421.316406 434.914062 C 422.226562 434.914062 422.960938 434.175781 422.960938 433.269531 L 422.960938 228.132812 C 422.960938 227.226562 422.226562 226.488281 421.316406 226.488281 Z M 419.671875 431.625 L 115.257812 431.625 L 115.257812 229.777344 L 419.671875 229.777344 Z M 295.820312 329.761719 C 265.328125 322.742188 249.410156 327.453125 241.359375 332.800781 C 235.511719 336.6875 231.761719 342.335938 230.804688 348.703125 C 229.835938 355.15625 231.808594 361.738281 236.375 367.238281 C 242.972656 375.191406 258.21875 384.945312 293.40625 386.246094 C 300.386719 386.503906 306.941406 386.582031 312.902344 386.484375 C 320.097656 397.179688 332.621094 405.105469 347.40625 408.289062 C 351.917969 409.261719 356.4375 409.742188 360.859375 409.742188 C 368.804688 409.742188 376.421875 408.191406 383.097656 405.136719 C 393.652344 400.316406 400.617188 392.332031 402.695312 382.664062 C 404.945312 372.21875 401.117188 361.140625 392.191406 352.085938 C 401.546875 337.707031 400.789062 320.519531 390.234375 311.652344 C 380.203125 303.226562 363.9375 304.898438 351.597656 315.34375 C 349.519531 310.460938 346.839844 305.679688 343.617188 301.117188 C 336.441406 290.941406 327.390625 282.96875 318.136719 278.667969 C 308.582031 274.226562 299.890625 274.199219 293.667969 278.589844 C 287.449219 282.976562 284.558594 291.171875 285.527344 301.660156 C 286.367188 310.691406 289.992188 320.546875 295.820312 329.761719 Z M 295.570312 281.277344 C 306.632812 273.476562 326.984375 283.226562 340.933594 303.011719 C 344.480469 308.035156 347.335938 313.324219 349.425781 318.71875 C 349.625 319.230469 350.066406 319.605469 350.597656 319.730469 C 351.128906 319.847656 351.6875 319.695312 352.089844 319.320312 C 363.390625 308.628906 378.886719 306.410156 388.121094 314.171875 C 397.652344 322.175781 397.910156 338.167969 388.71875 351.359375 C 388.257812 352.023438 388.34375 352.925781 388.929688 353.484375 C 397.726562 361.90625 401.566406 372.285156 399.488281 381.972656 C 397.632812 390.601562 391.324219 397.769531 381.734375 402.152344 C 371.980469 406.605469 360.035156 407.652344 348.097656 405.078125 C 334.007812 402.046875 321.695312 394.148438 315.160156 383.945312 C 314.855469 383.472656 314.335938 383.1875 313.777344 383.1875 C 313.765625 383.1875 313.757812 383.1875 313.746094 383.1875 C 307.601562 383.3125 300.800781 383.234375 293.523438 382.972656 C 259.554688 381.714844 245.070312 372.585938 238.898438 365.148438 C 233.828125 359.035156 233.464844 353.097656 234.050781 349.195312 C 234.632812 345.347656 236.683594 339.855469 243.175781 335.542969 C 251.023438 330.328125 267.105469 325.8125 299.128906 333.949219 C 299.792969 334.121094 300.496094 333.851562 300.890625 333.285156 C 301.28125 332.714844 301.273438 331.964844 300.871094 331.40625 L 299.550781 332.28125 L 300.800781 331.3125 C 293.953125 321.597656 289.691406 310.960938 288.800781 301.367188 C 287.953125 292.085938 290.355469 284.957031 295.570312 281.277344 Z M 295.570312 281.277344 " fill-opacity="1" fill-rule="nonzero"/></g></svg>