<svg xmlns="http://www.w3.org/2000/svg" xmlns:xlink="http://www.w3.org/1999/xlink" width="800" zoomAndPan="magnify" viewBox="0 0 600 599.999999" height="800" preserveAspectRatio="xMidYMid meet" version="1.0"><defs><clipPath id="55676da86f"><path d="M 82.105469 102 L 524.605469 102 L 524.605469 545.671875 L 82.105469 545.671875 Z M 82.105469 102 " clip-rule="nonzero"/></clipPath><clipPath id="b7f2dd348b"><path d="M 0 499.164062 L 600 499.164062 L 600 600 L 0 600 Z M 0 499.164062 " clip-rule="nonzero"/></clipPath><clipPath id="570967b6ec"><path d="M 0 0 L 600 0 L 600 106.316406 L 0 106.316406 Z M 0 0 " clip-rule="nonzero"/></clipPath><clipPath id="6ecd6936bc"><path d="M 70.105469 90 L 512.605469 90 L 512.605469 533.671875 L 70.105469 533.671875 Z M 70.105469 90 " clip-rule="nonzero"/></clipPath><clipPath id="db146eeeac"><path d="M 0 0 L 82.09375 0 L 82.09375 574 L 0 574 Z M 0 0 " clip-rule="nonzero"/></clipPath><clipPath id="927534e65c"><path d="M 506.542969 0 L 600 0 L 600 600 L 506.542969 600 Z M 506.542969 0 " clip-rule="nonzero"/></clipPath></defs><path fill="#000000" d="M 84.484375 104.660156 L 84.484375 542.746094 L 522.570312 542.746094 L 522.570312 104.660156 Z M 449.796875 279.78125 C 471.585938 283.996094 502.617188 306.183594 482.683594 342.640625 C 462.753906 379.097656 400.050781 361.355469 424.839844 403.886719 C 449.625 446.417969 459.820312 507.507812 401.023438 509.363281 C 359.890625 510.660156 350.46875 453.222656 308.671875 445.207031 C 266.875 437.183594 236.488281 511.800781 198.824219 512.285156 C 161.15625 512.773438 172.582031 468.539062 198.824219 435.488281 C 225.066406 402.4375 208.058594 388.828125 181.328125 370.351562 C 154.589844 351.882812 100.152344 336.570312 98.210938 307.652344 C 96.269531 278.730469 123.261719 273.296875 183.269531 285.777344 C 265.09375 302.785156 199.8125 194.71875 200.28125 144.984375 C 200.699219 99.796875 265.597656 119.550781 326.015625 180.953125 C 326.660156 181.613281 327.308594 182.238281 327.957031 182.859375 C 352.839844 206.949219 392.074219 206.53125 417.453125 182.964844 C 450.253906 152.492188 490.566406 171.226562 500.4375 201.449219 C 522.492188 269.050781 449.796875 279.78125 449.796875 279.78125 Z M 449.796875 279.78125 " fill-opacity="1" fill-rule="nonzero"/><g clip-path="url(#55676da86f)"><path fill="#000000" d="M 150.972656 356.300781 C 161.84375 361.738281 172.113281 366.875 179.96875 372.3125 C 196.0625 383.441406 207.601562 392.207031 209.3125 403.761719 C 210.550781 412.082031 206.503906 421.972656 196.949219 434.003906 C 180.328125 454.925781 166.328125 485.347656 174.835938 502.683594 C 177.53125 508.175781 183.773438 514.667969 198.203125 514.65625 C 198.414062 514.65625 198.625 514.65625 198.832031 514.65625 C 217.289062 514.417969 233.214844 498.21875 250.082031 481.066406 C 268.253906 462.578125 287.042969 443.476562 308.203125 447.53125 C 327.308594 451.195312 339.605469 465.929688 351.496094 480.1875 C 364.726562 496.046875 378.398438 512.4375 401.078125 511.734375 C 420.515625 511.125 434.015625 504.234375 441.203125 491.257812 C 454.613281 467.035156 441.867188 428.398438 426.875 402.675781 C 422.039062 394.375 420.480469 388.226562 422.117188 383.867188 C 424.4375 377.671875 433.519531 374.605469 444.039062 371.054688 C 458.136719 366.296875 475.679688 360.386719 484.761719 343.773438 C 492.367188 329.859375 493.480469 316.320312 487.988281 304.632812 C 482.378906 292.714844 470.664062 284.339844 459.257812 280.015625 C 470.460938 276.78125 489.195312 269.089844 499.601562 252.269531 C 508.253906 238.296875 509.289062 220.945312 502.675781 200.6875 C 497.25 184.078125 483.3125 171.015625 466.285156 166.609375 C 448.75 162.070312 430.828125 167.246094 415.804688 181.203125 C 391.152344 204.105469 353.277344 204.066406 329.585938 181.125 L 329.433594 180.984375 C 328.851562 180.421875 328.261719 179.851562 327.691406 179.269531 C 306.175781 157.40625 283.558594 140.109375 262.277344 129.257812 C 241.476562 118.652344 223.707031 115.359375 212.226562 119.996094 C 205.761719 122.605469 198.023438 129.058594 197.882812 144.945312 C 197.738281 160.507812 203.648438 180.851562 209.902344 202.390625 C 219.011719 233.746094 228.4375 266.167969 216.511719 279.066406 C 210.75 285.289062 199.71875 286.765625 183.726562 283.445312 C 140.160156 274.382812 115.449219 274.953125 103.597656 285.273438 C 97.761719 290.355469 95.144531 297.933594 95.8125 307.804688 C 97.285156 329.429688 124.578125 343.089844 150.972656 356.300781 Z M 106.746094 288.859375 C 112.136719 284.167969 121.140625 281.824219 134.246094 281.824219 C 146.632812 281.824219 162.671875 283.921875 182.785156 288.097656 C 200.773438 291.839844 212.949219 289.9375 220.023438 282.292969 C 233.777344 267.425781 223.972656 233.6875 214.492188 201.058594 C 208.601562 180.800781 202.515625 159.851562 202.660156 144.992188 C 202.753906 134.339844 206.582031 127.410156 214.035156 124.402344 C 232.890625 116.789062 276.820312 134.332031 324.320312 182.601562 C 324.929688 183.21875 325.539062 183.808594 326.148438 184.402344 L 326.300781 184.542969 C 351.820312 209.246094 392.5625 209.3125 419.070312 184.6875 C 432.855469 171.882812 449.207031 167.09375 465.113281 171.21875 C 480.582031 175.222656 493.25 187.074219 498.171875 202.164062 C 504.320312 221.011719 503.457031 237.019531 495.59375 249.746094 C 481.589844 272.394531 449.777344 277.363281 449.453125 277.410156 C 448.304688 277.582031 447.445312 278.550781 447.425781 279.710938 C 447.410156 280.875 448.21875 281.882812 449.351562 282.101562 C 461.828125 284.511719 477.289062 293.039062 483.695312 306.660156 C 488.585938 317.066406 487.550781 328.78125 480.601562 341.488281 C 472.414062 356.464844 456.535156 361.820312 442.535156 366.542969 C 430.875 370.476562 420.804688 373.875 417.679688 382.191406 C 415.480469 388.054688 417.109375 395.320312 422.792969 405.066406 C 437.15625 429.710938 449.511719 466.472656 437.0625 488.945312 C 430.75 500.351562 418.59375 506.414062 400.957031 506.964844 C 380.625 507.640625 368.25 492.800781 355.171875 477.125 C 342.75 462.226562 329.898438 446.824219 309.117188 442.847656 C 285.464844 438.304688 265.761719 458.34375 246.703125 477.714844 C 230.539062 494.144531 215.28125 509.667969 198.785156 509.878906 C 188.839844 509.992188 182.214844 506.871094 179.121094 500.570312 C 172.714844 487.507812 181.777344 460.75 200.679688 436.945312 C 211.246094 423.648438 215.480469 412.871094 214.023438 403.039062 C 212.027344 389.589844 199.765625 380.183594 182.671875 368.371094 C 174.53125 362.746094 164.117188 357.539062 153.09375 352.027344 C 127.898438 339.414062 101.847656 326.382812 100.570312 307.46875 C 100.007812 299.066406 102.027344 292.972656 106.746094 288.859375 Z M 522.570312 102.28125 L 84.484375 102.28125 C 83.167969 102.28125 82.105469 103.347656 82.105469 104.660156 L 82.105469 542.746094 C 82.105469 544.058594 83.167969 545.125 84.484375 545.125 L 522.570312 545.125 C 523.882812 545.125 524.949219 544.058594 524.949219 542.746094 L 524.949219 104.660156 C 524.949219 103.347656 523.882812 102.28125 522.570312 102.28125 Z M 520.1875 540.367188 L 86.863281 540.367188 L 86.863281 107.042969 L 520.1875 107.042969 Z M 520.1875 540.367188 " fill-opacity="1" fill-rule="nonzero"/></g><g clip-path="url(#b7f2dd348b)"><path fill="#09eba7" d="M -37.167969 499.164062 L 600.199219 499.164062 L 600.199219 690 L -37.167969 690 Z M -37.167969 499.164062 " fill-opacity="1" fill-rule="nonzero"/></g><g clip-path="url(#570967b6ec)"><path fill="#09eba7" d="M -24.988281 -80.578125 L 613.816406 -80.578125 L 613.816406 106.316406 L -24.988281 106.316406 Z M -24.988281 -80.578125 " fill-opacity="1" fill-rule="nonzero"/></g><path fill="#09eba7" d="M 72.484375 92.660156 L 72.484375 530.746094 L 510.570312 530.746094 L 510.570312 92.660156 Z M 437.796875 267.78125 C 459.585938 271.996094 490.617188 294.183594 470.683594 330.640625 C 450.753906 367.097656 388.050781 349.355469 412.839844 391.886719 C 437.625 434.417969 447.820312 495.507812 389.023438 497.363281 C 347.890625 498.660156 338.46875 441.222656 296.671875 433.207031 C 254.875 425.183594 224.488281 499.800781 186.824219 500.285156 C 149.15625 500.773438 160.582031 456.539062 186.824219 423.488281 C 213.066406 390.4375 196.058594 376.828125 169.328125 358.351562 C 142.589844 339.882812 88.152344 324.570312 86.210938 295.652344 C 84.269531 266.730469 111.261719 261.296875 171.269531 273.777344 C 253.09375 290.785156 187.8125 182.71875 188.28125 132.984375 C 188.699219 87.796875 253.597656 107.550781 314.015625 168.953125 C 314.660156 169.613281 315.308594 170.238281 315.957031 170.859375 C 340.839844 194.949219 380.074219 194.53125 405.453125 170.964844 C 438.253906 140.492188 478.566406 159.226562 488.4375 189.449219 C 510.492188 257.050781 437.796875 267.78125 437.796875 267.78125 Z M 437.796875 267.78125 " fill-opacity="1" fill-rule="nonzero"/><g clip-path="url(#6ecd6936bc)"><path fill="#09eba7" d="M 138.972656 344.300781 C 149.84375 349.738281 160.113281 354.875 167.96875 360.3125 C 184.0625 371.441406 195.601562 380.207031 197.3125 391.761719 C 198.550781 400.082031 194.503906 409.972656 184.949219 422.003906 C 168.328125 442.925781 154.328125 473.347656 162.835938 490.683594 C 165.53125 496.175781 171.773438 502.667969 186.203125 502.65625 C 186.414062 502.65625 186.625 502.65625 186.832031 502.65625 C 205.289062 502.417969 221.214844 486.21875 238.082031 469.066406 C 256.253906 450.578125 275.042969 431.476562 296.203125 435.53125 C 315.308594 439.195312 327.605469 453.929688 339.496094 468.1875 C 352.726562 484.046875 366.398438 500.4375 389.078125 499.734375 C 408.515625 499.125 422.015625 492.234375 429.203125 479.257812 C 442.613281 455.035156 429.867188 416.398438 414.875 390.675781 C 410.039062 382.375 408.480469 376.226562 410.117188 371.867188 C 412.4375 365.671875 421.519531 362.605469 432.039062 359.054688 C 446.136719 354.296875 463.679688 348.386719 472.761719 331.773438 C 480.367188 317.859375 481.480469 304.320312 475.988281 292.632812 C 470.378906 280.714844 458.664062 272.339844 447.257812 268.015625 C 458.460938 264.78125 477.195312 257.089844 487.601562 240.269531 C 496.253906 226.296875 497.289062 208.945312 490.675781 188.6875 C 485.25 172.078125 471.3125 159.015625 454.285156 154.609375 C 436.75 150.070312 418.828125 155.246094 403.804688 169.203125 C 379.152344 192.105469 341.277344 192.066406 317.585938 169.125 L 317.433594 168.984375 C 316.851562 168.421875 316.261719 167.851562 315.691406 167.269531 C 294.175781 145.40625 271.558594 128.109375 250.277344 117.257812 C 229.476562 106.652344 211.707031 103.359375 200.226562 107.996094 C 193.761719 110.605469 186.023438 117.058594 185.882812 132.945312 C 185.738281 148.507812 191.648438 168.851562 197.902344 190.390625 C 207.011719 221.746094 216.4375 254.167969 204.511719 267.066406 C 198.75 273.289062 187.71875 274.765625 171.726562 271.445312 C 128.160156 262.382812 103.449219 262.953125 91.597656 273.273438 C 85.761719 278.355469 83.144531 285.933594 83.8125 295.804688 C 85.285156 317.429688 112.578125 331.089844 138.972656 344.300781 Z M 94.746094 276.859375 C 100.136719 272.167969 109.140625 269.824219 122.246094 269.824219 C 134.632812 269.824219 150.671875 271.921875 170.785156 276.097656 C 188.773438 279.839844 200.949219 277.9375 208.023438 270.292969 C 221.777344 255.425781 211.972656 221.6875 202.492188 189.058594 C 196.601562 168.800781 190.515625 147.851562 190.660156 132.992188 C 190.753906 122.339844 194.582031 115.410156 202.035156 112.402344 C 220.890625 104.789062 264.820312 122.332031 312.320312 170.601562 C 312.929688 171.21875 313.539062 171.808594 314.148438 172.402344 L 314.300781 172.542969 C 339.820312 197.246094 380.5625 197.3125 407.070312 172.6875 C 420.855469 159.882812 437.207031 155.09375 453.113281 159.21875 C 468.582031 163.222656 481.25 175.074219 486.171875 190.164062 C 492.320312 209.011719 491.457031 225.019531 483.59375 237.746094 C 469.589844 260.394531 437.777344 265.363281 437.453125 265.410156 C 436.304688 265.582031 435.445312 266.550781 435.425781 267.710938 C 435.410156 268.875 436.21875 269.882812 437.351562 270.101562 C 449.828125 272.511719 465.289062 281.039062 471.695312 294.660156 C 476.585938 305.066406 475.550781 316.78125 468.601562 329.488281 C 460.414062 344.464844 444.535156 349.820312 430.535156 354.542969 C 418.875 358.476562 408.804688 361.875 405.679688 370.191406 C 403.480469 376.054688 405.109375 383.320312 410.792969 393.066406 C 425.15625 417.710938 437.511719 454.472656 425.0625 476.945312 C 418.75 488.351562 406.59375 494.414062 388.957031 494.964844 C 368.625 495.640625 356.25 480.800781 343.171875 465.125 C 330.75 450.226562 317.898438 434.824219 297.117188 430.847656 C 273.464844 426.304688 253.761719 446.34375 234.703125 465.714844 C 218.539062 482.144531 203.28125 497.667969 186.785156 497.878906 C 176.839844 497.992188 170.214844 494.871094 167.121094 488.570312 C 160.714844 475.507812 169.777344 448.75 188.679688 424.945312 C 199.246094 411.648438 203.480469 400.871094 202.023438 391.039062 C 200.027344 377.589844 187.765625 368.183594 170.671875 356.371094 C 162.53125 350.746094 152.117188 345.539062 141.09375 340.027344 C 115.898438 327.414062 89.847656 314.382812 88.570312 295.46875 C 88.007812 287.066406 90.027344 280.972656 94.746094 276.859375 Z M 510.570312 90.28125 L 72.484375 90.28125 C 71.167969 90.28125 70.105469 91.347656 70.105469 92.660156 L 70.105469 530.746094 C 70.105469 532.058594 71.167969 533.125 72.484375 533.125 L 510.570312 533.125 C 511.882812 533.125 512.949219 532.058594 512.949219 530.746094 L 512.949219 92.660156 C 512.949219 91.347656 511.882812 90.28125 510.570312 90.28125 Z M 508.1875 528.367188 L 74.863281 528.367188 L 74.863281 95.042969 L 508.1875 95.042969 Z M 508.1875 528.367188 " fill-opacity="1" fill-rule="nonzero"/></g><g clip-path="url(#db146eeeac)"><path fill="#09eba7" d="M 82.09375 -65.140625 L 82.09375 573.664062 L -104.800781 573.664062 L -104.800781 -65.140625 Z M 82.09375 -65.140625 " fill-opacity="1" fill-rule="nonzero"/></g><g clip-path="url(#927534e65c)"><path fill="#09eba7" d="M 693.441406 -32.453125 L 693.441406 606.355469 L 506.542969 606.355469 L 506.542969 -32.453125 Z M 693.441406 -32.453125 " fill-opacity="1" fill-rule="nonzero"/></g></svg>