<svg xmlns="http://www.w3.org/2000/svg" xmlns:xlink="http://www.w3.org/1999/xlink" width="800" zoomAndPan="magnify" viewBox="0 0 600 599.999999" height="800" preserveAspectRatio="xMidYMid meet" version="1.0"><defs><clipPath id="fecde73482"><path d="M 0 12.003906 L 600 12.003906 L 600 250.503906 L 0 250.503906 Z M 0 12.003906 " clip-rule="nonzero"/></clipPath><clipPath id="7bb747a7f7"><path d="M 0 0.00390625 L 600 0.00390625 L 600 238.503906 L 0 238.503906 Z M 0 0.00390625 " clip-rule="nonzero"/></clipPath></defs><rect x="-60" width="720" fill="#ffffff" y="-60" height="719.999999" fill-opacity="1"/><rect x="-60" width="720" fill="#ffffff" y="-60" height="719.999999" fill-opacity="1"/><g clip-path="url(#fecde73482)"><path fill="#000000" d="M 86.550781 175.183594 C 133.785156 158.542969 157.949219 96.691406 207.636719 90.332031 C 238.582031 86.367188 267.824219 106.675781 287.394531 130.976562 C 306.964844 155.273438 320.292969 184.179688 340.4375 207.992188 C 360.582031 231.816406 391.128906 250.796875 421.707031 244.617188 C 447.449219 239.410156 466.503906 218.089844 489.867188 206.078125 C 521.972656 189.574219 563.09375 192.3125 592.722656 212.933594 C 606.4375 222.480469 617.421875 235.671875 624.832031 250.636719 L 624.832031 12.003906 L -0.8125 12.003906 L -0.8125 179.574219 C 28.191406 177.449219 58.972656 184.894531 86.5625 175.171875 Z M 86.550781 175.183594 " fill-opacity="1" fill-rule="nonzero"/></g><g clip-path="url(#7bb747a7f7)"><path fill="#526f7b" d="M 74.550781 163.183594 C 121.785156 146.542969 145.949219 84.691406 195.636719 78.332031 C 226.582031 74.367188 255.824219 94.675781 275.394531 118.976562 C 294.964844 143.273438 308.292969 172.179688 328.4375 195.992188 C 348.582031 219.816406 379.128906 238.796875 409.707031 232.617188 C 435.449219 227.410156 454.503906 206.089844 477.867188 194.078125 C 509.972656 177.574219 551.09375 180.3125 580.722656 200.933594 C 594.4375 210.480469 605.421875 223.671875 612.832031 238.636719 L 612.832031 0.00390625 L -12.8125 0.00390625 L -12.8125 167.574219 C 16.191406 165.449219 46.972656 172.894531 74.5625 163.171875 Z M 74.550781 163.183594 " fill-opacity="1" fill-rule="nonzero"/></g></svg>